<?xml version="1.0" encoding="utf-8"?>
<!-- Generator: Adobe Illustrator 22.1.0, SVG Export Plug-In . SVG Version: 6.00 Build 0)  -->
<svg version="1.1" id="Layer_1" xmlns="http://www.w3.org/2000/svg" xmlns:xlink="http://www.w3.org/1999/xlink" x="0px" y="0px"
	 viewBox="0 0 1000 1000" style="enable-background:new 0 0 1000 1000;" xml:space="preserve">
<style type="text/css">
	.st0{fill:url(#SVGID_1_);}
</style>
<g>
	<g>
		<path d="M155.2,693.8c-3.1-1-5.5-2.4-7.2-4.2c-1.8-1.8-2.7-3.9-2.7-6.5c0-2.5,0.9-4.6,2.7-6.4s3.9-2.7,6.5-2.7
			c2.5,0,4.6,0.9,6.4,2.7c1,1,1.6,2,2,3.2l-2.2,0.9c-0.3-0.9-0.9-1.7-1.6-2.4c-1.3-1.3-2.9-1.9-4.7-1.9c-1.8,0-3.4,0.6-4.7,1.9
			s-2,2.9-2,4.7c0,1.8,0.6,3.4,1.9,4.7c1.2,1.2,2.9,2.3,5,3.3c3.4,1.1,6.3,2.8,8.7,5.2c2.5,2.5,3.7,5.5,3.7,9c0,3.5-1.2,6.5-3.7,9
			c-2.5,2.5-5.5,3.7-9,3.7c-3.5,0-6.5-1.3-9-3.8c-2-2-3.2-4.3-3.6-6.9l2.3-0.8c0.2,2.3,1.2,4.4,3,6.1c2,2,4.5,3,7.3,3
			c2.9,0,5.3-1,7.3-3c2-2,3-4.5,3-7.3c0-2.8-1-5.3-3-7.3C159.9,696.3,157.7,694.9,155.2,693.8z"/>
		<path d="M219.4,711.2l2.6,0.9c-0.5,0.6-1,1.2-1.6,1.8c-2.9,2.9-6.4,4.3-10.4,4.3c-4,0-7.5-1.4-10.4-4.3c-2.9-2.9-4.3-6.4-4.3-10.4
			s1.4-7.5,4.3-10.4c2.9-2.9,6.4-4.3,10.4-4.3c4.1,0,7.6,1.4,10.4,4.3c0.6,0.6,1.1,1.2,1.6,1.8l-2.6,0.9c-0.3-0.3-0.5-0.6-0.9-1
			c-2.4-2.4-5.3-3.6-8.6-3.6c-3.3,0-6.2,1.2-8.6,3.6c-2.4,2.4-3.6,5.2-3.6,8.6c0,3.4,1.2,6.2,3.6,8.6c2.4,2.4,5.2,3.6,8.6,3.6
			c3.4,0,6.2-1.2,8.6-3.6C218.8,711.9,219.1,711.6,219.4,711.2z"/>
		<path d="M260.7,693.4c-1.7,0.3-3.4,1.4-5.1,3.3c-1.7,1.9-2.5,3.9-2.5,5.8v15.1h-2.4v-26.4h2.4v5.7c1-2.7,3.1-4.6,6.2-5.9
			L260.7,693.4z"/>
		<path d="M289.8,702.3c-0.1,0.4-0.1,0.9-0.1,1.4c0,3.4,1.2,6.2,3.6,8.6c2.4,2.4,5.2,3.6,8.6,3.6c3.4,0,6.2-1.2,8.6-3.6
			c0.4-0.4,0.8-0.8,1.2-1.3l2.6,0.9c-0.3,0.5-0.9,1.2-1.9,2.2c-2.9,2.9-6.4,4.3-10.4,4.3c-4,0-7.5-1.4-10.4-4.3
			c-2.9-2.9-4.3-6.4-4.3-10.4c0-4.1,1.4-7.6,4.3-10.4c2.9-2.9,6.4-4.3,10.4-4.3c4.1,0,7.6,1.4,10.4,4.3c2.5,2.6,3.8,5.6,3.8,9.1
			H289.8z M290.3,699.8h23.1c-0.6-1.8-1.5-3.4-2.9-4.8c-2.4-2.4-5.3-3.6-8.6-3.6c-3.4,0-6.2,1.2-8.6,3.6
			C291.9,696.4,290.9,698,290.3,699.8z"/>
		<path d="M346.3,702.3c-0.1,0.4-0.1,0.9-0.1,1.4c0,3.4,1.2,6.2,3.6,8.6c2.4,2.4,5.2,3.6,8.6,3.6c3.4,0,6.2-1.2,8.6-3.6
			c0.4-0.4,0.8-0.8,1.2-1.3l2.6,0.9c-0.3,0.5-0.9,1.2-1.9,2.2c-2.9,2.9-6.4,4.3-10.4,4.3c-4,0-7.5-1.4-10.4-4.3
			c-2.9-2.9-4.3-6.4-4.3-10.4c0-4.1,1.4-7.6,4.3-10.4c2.9-2.9,6.4-4.3,10.4-4.3c4.1,0,7.6,1.4,10.4,4.3c2.5,2.6,3.8,5.6,3.8,9.1
			H346.3z M346.8,699.8h23.1c-0.6-1.8-1.5-3.4-2.9-4.8c-2.4-2.4-5.3-3.6-8.6-3.6c-3.4,0-6.2,1.2-8.6,3.6
			C348.4,696.4,347.4,698,346.8,699.8z"/>
		<path d="M404.1,697.1v20.5h-2.4v-26.4h2.4v1.7c2.2-2.2,4.7-3.3,7.7-3.3c3.1,0,5.7,1,7.6,2.9c2,2,3,4.4,3,7.4v17.6h-2.4v-17.4
			c0-2.2-0.8-4.2-2.4-5.7c-1.6-1.6-3.5-2.4-5.8-2.4c-2.2,0-4.1,0.8-5.7,2.3C405.1,695.3,404.5,696.2,404.1,697.1z"/>
		<path d="M496.3,702.7v14.9h-2.4v-42.9h11.3c3.3,0.4,6.1,1.8,8.4,4.1c2.7,2.8,4.1,6.1,4.1,9.9c0,3.9-1.4,7.2-4.1,9.9
			c-2.7,2.7-6,4.1-9.9,4.1H496.3z M496.3,677.1v23.1h7.3c3.2,0,5.9-1.1,8.2-3.4c2.3-2.3,3.4-5,3.4-8.2c0-3.2-1.1-5.9-3.4-8.2
			c-2.3-2.2-5-3.4-8.2-3.4H496.3z"/>
		<path d="M555.7,693.4c-1.7,0.3-3.4,1.4-5.1,3.3c-1.7,1.9-2.5,3.9-2.5,5.8v15.1h-2.4v-26.4h2.4v5.7c1-2.7,3.1-4.6,6.2-5.9
			L555.7,693.4z"/>
		<path d="M587.1,682.6c0.5,0.5,0.7,1,0.7,1.7c0,0.7-0.2,1.3-0.7,1.7c-0.5,0.5-1,0.7-1.7,0.7c-0.7,0-1.2-0.2-1.7-0.7
			c-0.5-0.5-0.7-1-0.7-1.7c0-0.6,0.2-1.2,0.7-1.7c0.5-0.5,1-0.7,1.7-0.7C586.1,681.9,586.6,682.1,587.1,682.6z M586.6,691.2v26.4
			h-2.4v-26.4H586.6z"/>
		<path d="M620.5,697.1v20.5h-2.4v-26.4h2.4v1.7c2.2-2.2,4.7-3.3,7.7-3.3c3.1,0,5.7,1,7.6,2.9c2,2,3,4.4,3,7.4v17.6h-2.4v-17.4
			c0-2.2-0.8-4.2-2.4-5.7c-1.6-1.6-3.5-2.4-5.8-2.4c-2.2,0-4.1,0.8-5.7,2.3C621.6,695.3,620.9,696.2,620.5,697.1z"/>
		<path d="M673,691.2V680h2.4v11.2h5.4v2.4h-5.4v23.9H673v-23.9h-5.4v-2.4H673z"/>
		<path d="M713.1,682.6c0.5,0.5,0.7,1,0.7,1.7c0,0.7-0.2,1.3-0.7,1.7c-0.5,0.5-1,0.7-1.7,0.7c-0.7,0-1.2-0.2-1.7-0.7
			c-0.5-0.5-0.7-1-0.7-1.7c0-0.6,0.2-1.2,0.7-1.7c0.5-0.5,1-0.7,1.7-0.7C712.1,681.9,712.7,682.1,713.1,682.6z M712.6,691.2v26.4
			h-2.4v-26.4H712.6z"/>
		<path d="M746.6,697.1v20.5h-2.4v-26.4h2.4v1.7c2.2-2.2,4.7-3.3,7.7-3.3c3.1,0,5.7,1,7.6,2.9c2,2,3,4.4,3,7.4v17.6h-2.4v-17.4
			c0-2.2-0.8-4.2-2.4-5.7c-1.6-1.6-3.5-2.4-5.8-2.4c-2.2,0-4.1,0.8-5.7,2.3C747.6,695.3,747,696.2,746.6,697.1z"/>
		<path d="M820.9,712.4c-0.5,0.6-1,1.1-1.5,1.6c-2.9,2.9-6.4,4.3-10.4,4.3c-4,0-7.5-1.4-10.4-4.3c-2.9-2.9-4.3-6.4-4.3-10.4
			c0-4.1,1.4-7.6,4.3-10.4c2.9-2.9,6.4-4.3,10.4-4.3c4.1,0,7.6,1.4,10.4,4.3c0.5,0.6,1.1,1.2,1.5,1.8v-3.7h2.4v20.5
			c0,4-1.4,7.3-4.2,10.1c-2.9,2.9-6.3,4.3-10.4,4.3c-4.1,0-7.6-1.4-10.4-4.3c-0.6-0.6-1.1-1.2-1.6-1.8l2.6-0.9
			c0.3,0.3,0.6,0.6,0.9,0.9c2.4,2.4,5.2,3.6,8.6,3.6c3.3,0,6.2-1.2,8.6-3.6C819.5,717.9,820.7,715.3,820.9,712.4z M820.9,701.1
			c-0.5-2.3-1.6-4.3-3.3-6.1c-2.4-2.4-5.3-3.6-8.6-3.6c-3.4,0-6.2,1.2-8.6,3.6c-2.4,2.4-3.6,5.3-3.6,8.6c0,3.4,1.2,6.2,3.6,8.6
			c2.4,2.4,5.2,3.6,8.6,3.6c3.4,0,6.2-1.2,8.6-3.6c1.7-1.7,2.8-3.7,3.3-6V701.1z"/>
	</g>
	<g>
		<path d="M178.7,574.2c4.4,0,8.1,0.7,11.1,2.2c3,1.5,5.4,3.4,7.2,5.8c1.8,2.4,3.2,5.1,3.9,8.2c0.8,3.1,1.2,6.2,1.2,9.4
			c0,4.4-0.7,8.2-2,11.5c-1.3,3.3-3.2,5.9-5.5,8c-2.4,2.1-5.2,3.6-8.6,4.7c-3.4,1-7.1,1.6-11.1,1.6h-9.2v34.1h-17.2v-85.5H178.7z
			 M173.4,612.8c3.4,0,6.2-1,8.3-3.1c2.1-2.1,3.2-5.3,3.2-9.7c0-4.3-0.9-7.6-2.8-9.8c-1.8-2.2-4.9-3.4-9.2-3.4h-7.2v26H173.4z"/>
		<path d="M268.1,574.2l22.6,85.5h-18l-3.9-18.1H246l-3.9,18.1h-18l22.6-85.5H268.1z M265.8,627.4l-8.3-38.4h-0.2l-8.3,38.4H265.8z"
			/>
		<path d="M334.5,635.5c0,2,0.2,3.8,0.5,5.4c0.3,1.6,0.9,3,1.8,4.1c0.9,1.1,2.1,2,3.5,2.6c1.5,0.6,3.3,1,5.6,1c2.6,0,5-0.9,7.1-2.6
			c2.1-1.7,3.2-4.4,3.2-8c0-1.9-0.3-3.6-0.8-5c-0.5-1.4-1.4-2.7-2.6-3.8c-1.2-1.1-2.8-2.1-4.7-3.1c-2-0.9-4.4-1.9-7.2-2.8
			c-3.8-1.3-7.1-2.7-9.9-4.2c-2.8-1.5-5.1-3.3-7-5.3c-1.9-2-3.3-4.4-4.1-7.1c-0.9-2.7-1.3-5.8-1.3-9.3c0-8.5,2.4-14.8,7.1-18.9
			c4.7-4.1,11.2-6.2,19.4-6.2c3.8,0,7.4,0.4,10.6,1.3s6,2.2,8.4,4.1c2.4,1.9,4.2,4.3,5.5,7.2c1.3,2.9,2,6.4,2,10.5v2.4h-16.5
			c0-4.1-0.7-7.2-2.2-9.4c-1.4-2.2-3.8-3.3-7.2-3.3c-1.9,0-3.5,0.3-4.8,0.8c-1.3,0.6-2.3,1.3-3.1,2.2c-0.8,0.9-1.3,2-1.6,3.2
			c-0.3,1.2-0.4,2.4-0.4,3.7c0,2.6,0.6,4.8,1.7,6.6c1.1,1.8,3.5,3.5,7.2,5l13.3,5.7c3.3,1.4,5.9,2.9,8,4.5c2.1,1.6,3.7,3.2,5,5
			c1.2,1.8,2.1,3.8,2.6,5.9s0.7,4.5,0.7,7.2c0,9-2.6,15.6-7.8,19.7c-5.2,4.1-12.5,6.2-21.8,6.2c-9.7,0-16.7-2.1-20.9-6.3
			c-4.2-4.2-6.3-10.3-6.3-18.2v-3.5h17.2V635.5z"/>
		<path d="M444.6,574.2l22.6,85.5h-18l-3.9-18.1h-22.7l-3.9,18.1h-18l22.6-85.5H444.6z M442.3,627.4l-8.3-38.4h-0.2l-8.3,38.4H442.3
			z"/>
		<path d="M526.2,574.2c6,0,10.8,1,14.5,2.9c3.7,2,6.5,4.7,8.6,8.4c2,3.6,3.4,8,4.1,13.1c0.7,5.1,1.1,10.8,1.1,17.1
			c0,7.5-0.5,14-1.4,19.6c-0.9,5.5-2.5,10.1-4.7,13.7c-2.2,3.6-5.2,6.3-9,8c-3.8,1.8-8.5,2.6-14.2,2.6H498v-85.5H526.2z
			 M522.9,646.9c3,0,5.5-0.5,7.3-1.6c1.8-1,3.3-2.8,4.4-5.1s1.8-5.5,2.2-9.5c0.4-3.9,0.5-8.8,0.5-14.6c0-4.9-0.2-9.1-0.5-12.8
			c-0.3-3.7-1-6.7-2-9.2c-1-2.4-2.5-4.3-4.4-5.5c-2-1.2-4.6-1.9-7.8-1.9h-7.3v60.1H522.9z"/>
		<path d="M637.5,588.3H607v20.1h28.7v14.1H607v23h31.7v14.1h-49v-85.5h47.8V588.3z"/>
		<path d="M712,632.7h0.2v-58.5H728v85.5h-19.6l-21.1-59.8h-0.2v59.8h-15.8v-85.5h19.9L712,632.7z"/>
		<path d="M801.9,574.2l22.6,85.5h-18l-3.9-18.1h-22.7l-3.9,18.1h-18l22.6-85.5H801.9z M799.6,627.4l-8.3-38.4h-0.2l-8.3,38.4H799.6
			z"/>
	</g>
	<g>
		<path d="M820,414.7c-8.8,6.4-10.1,12-4.6,21.8c-8.9-1.5-17.1-2.9-25.3-4.3c-57.4-10.1-114.9-20.2-172.3-30.4
			c-51-9-102-18.1-152.9-27.1c-27-4.8-54-9.4-80.9-14.4c-2.3-0.4-4.9-2.1-6.2-4c-5.9-8.4-5.6-20.1,0.4-28.4
			c5.6-7.9,15.2-11.1,25.5-8.7c44.9,10.5,89.7,21.2,134.6,31.5c72,16.4,144.1,32.6,216.1,48.9c20.9,4.7,41.7,9.4,62.6,14.1
			C817.8,413.9,818.6,414.3,820,414.7z"/>
	</g>
	<path d="M241.8,512.3c18.6,3.5,37.1,7.5,55.8,10.4c23.5,3.7,46.3,1.1,66.1-13c20.6-14.7,40.8-30,60.1-46.3
		c14.9-12.5,31.7-19.1,50.4-21.7c18.6-2.6,37.1-1.3,55.3,3.5c18.1,4.8,32.4,15.5,45,28.9c6.6,7,13.2,13.9,19.7,20.9
		c19.9,21.4,44.4,25.8,71.5,18.3c10.9-3,21.2-7.8,31.8-11.8c22.4-8.6,42.9-7.4,61.3,3c6.1,3.5,18.4-13.1,18.4-13.1
		c12.8-16.3,25.9-33.1,39.6-50.5c-1.9-0.4-2.7-0.6-3.5-0.7c-28.6-4.8-57.2-9.6-85.8-14.4c-36.4-6.1-72.9-12.4-109.3-18.5
		c-37-6.2-74-12.3-110.9-18.5c-42.2-7.1-84.4-14.3-126.6-21.3c-1.5-0.2-3.8,0.7-4.7,1.9c-11.7,14.7-23.2,29.5-34.7,44.3
		c-22,28.2-44,56.5-66,84.6c-0.9,1.1-2.6,2.6-3.6,2.4c-7.8-1.5-15.6-3.5-23.5-5.3c21.5-27.3,43-54.7,65-82.6
		c-8.4-6.3-16.5-12.4-24.8-18.6c-25.5,32.4-50.6,64.3-76.9,97.7c-2.8-5.3-5.8-9.2-6.8-13.6c-1.9-8.4,0.9-15.8,6.3-22.7
		c35.2-44.7,70.2-89.5,105.1-134.4c3.1-4,5.5-5.4,10.8-4c12.6,3.4,23.2-2.7,27.8-15.1c3.5-9.3,2.5-18-4-25.8
		c11.3-14.2,22-28.3,33.4-41.8c5.7-6.8,13.6-10.7,22.7-11.4c19.2-1.5,38.3,11.7,44.4,30.4c3,9.2,2.4,17.7-4.2,25.4
		c-3.9,4.6-7.4,9.5-11.2,14.2c-5.9,7.5-11.7,15-17.6,22.5c0.7,0.5,0.9,0.9,1.2,0.9c50.2,11.8,100.5,23.5,150.7,35.3
		c42.8,10.1,85.7,20.2,128.5,30.3c44.9,10.5,89.8,21,134.7,31.6c3.1,0.7,4.7,0.3,6.6-2.3c5.6-7.6,11.5-14.8,17.2-22.3
		c1.5-1.9,2.8-4.1,3.5-6.4c4.7-14.5-2.7-27.7-18.5-33c-72.5-24.6-145-49-217.4-73.6c-64.9-22-129.8-44.1-194.7-66.3
		c-20.9-7.1-43.7-2.6-56.9,13.6c-14,17.3-26.7,35.6-40,53.6c5.9,6.8,13,14,6.2,22.5c-7.1,9-16.6,4.2-25.2,0.4
		c-0.7,0.7-1.3,1.3-1.9,2c-37.7,49-75.3,98-112.9,147.1c-10.3,13.4-13.4,27.6-4.1,43C195,492.2,210.9,507.9,241.8,512.3z M706.4,455
		c2,0.4,4.8,2.2,4.9,4.9s1.1,5.1-4.3,6.5c-0.8,0-4.9-2.5-4.9-2.5s-0.5-1.4-0.9-3.5C700.4,456.7,703.1,454.4,706.4,455z M638.3,443.4
		c14.3-0.1,25,10.4,25.2,24.6c0.1,10.9-10.4,19.2-24.7,19.5c-13,0.3-22.5-8.9-22.8-22.1C615.8,453,625.4,443.4,638.3,443.4z
		 M399.9,408.7c6.9,0,11.7,5.4,11.7,13c-0.1,7.8-5.6,12.9-13.8,12.9c-8,0-14-5.7-13.9-12.9C383.9,414.5,391.1,408.7,399.9,408.7z"/>
	<linearGradient id="SVGID_1_" gradientUnits="userSpaceOnUse" x1="142.5182" y1="628.3737" x2="813.5714" y2="628.3737">
		<stop  offset="0.1091" style="stop-color:#FDE900"/>
		<stop  offset="0.1332" style="stop-color:#FCDF00"/>
		<stop  offset="0.1778" style="stop-color:#FACA0A"/>
		<stop  offset="0.2373" style="stop-color:#FAA720"/>
		<stop  offset="0.2415" style="stop-color:#FAA421"/>
		<stop  offset="0.2527" style="stop-color:#F8983C"/>
		<stop  offset="0.275" style="stop-color:#F5845D"/>
		<stop  offset="0.2983" style="stop-color:#F2706E"/>
		<stop  offset="0.3223" style="stop-color:#F05B7A"/>
		<stop  offset="0.347" style="stop-color:#EF4781"/>
		<stop  offset="0.3727" style="stop-color:#EE3385"/>
		<stop  offset="0.3998" style="stop-color:#ED1E88"/>
		<stop  offset="0.4294" style="stop-color:#EC078A"/>
		<stop  offset="0.4659" style="stop-color:#EC008C"/>
		<stop  offset="0.5123" style="stop-color:#DA218C"/>
		<stop  offset="0.5991" style="stop-color:#B9418F"/>
		<stop  offset="0.6429" style="stop-color:#A74B90"/>
		<stop  offset="0.6757" style="stop-color:#995D9C"/>
		<stop  offset="0.7621" style="stop-color:#6B7CB6"/>
		<stop  offset="0.8408" style="stop-color:#0E92CD"/>
		<stop  offset="0.9091" style="stop-color:#00A0DE"/>
		<stop  offset="0.9645" style="stop-color:#00A9E9"/>
		<stop  offset="1" style="stop-color:#00AEEF"/>
	</linearGradient>
	<path class="st0" d="M142.5,552.9c10-13.9,23.2-20.8,37.7-25.4c21.2-6.6,42.9-6.9,64.6-3.1c18.6,3.2,37.1,7.5,55.8,10.4
		c23.5,3.7,46.3,1.1,66.1-13c20.6-14.7,40.8-30,60.1-46.3c14.9-12.5,31.7-19.1,50.4-21.7c18.6-2.6,37.1-1.3,55.3,3.5
		c18.1,4.8,32.4,15.5,45,28.9c6.6,7,13.2,13.9,19.7,20.9c19.9,21.4,44.4,25.8,71.5,18.3c10.9-3,21.2-7.8,31.8-11.8
		c29.9-11.4,56.3-5.6,79,16.5c9.9,9.6,20.2,18.3,34,22.2c-2,0-4,0-5.9,0c-54.6-0.1-109.2-0.1-163.8-0.2c-77.6-0.1-155.1-0.3-232.7,0
		c-9.7,0-19.8,1.7-29.1,4.6c-11.9,3.8-19.9,12.5-22.1,25.4c-4.9,27.9-5,56.1-4.2,84.2c1,34.2,2.9,68.3,4.1,102.5
		c0.3,8.8,5.9,35.2-6.3,35.2c-12.3,0-8.4-26.3-7.6-36.6c3.2-39.5,2.3-79,1-118.5c-0.6-19.7-1.7-39.3-2.5-59
		c-0.3-6.9-2.1-13.1-6.3-18.8c-5.2-7-11.7-8.5-18.8-3.4c-8.9,6.4-12.5,15.4-12.1,26.3c0.3,6.1,0.2,12.3-0.4,18.5
		c-0.5,5-3.9,8.2-8.9,8.3c-4.9,0.1-8.7-3.1-9.5-7.8c-1.3-8-2.1-16.1-2.3-24.2c-0.3-21.2-15.2-36.1-36.6-36.1c-33.5,0-67,0-100.5,0
		C147.4,552.9,145.5,552.9,142.5,552.9z"/>
</g>
</svg>
